HIERARCHY
ROOT Hips
{
	OFFSET 0.000000 83.214638 0.000000
	CHANNELS 6 Xposition Yposition Zposition Xrotation Yrotation Zrotation
	JOINT Pelvis
	{
		OFFSET 0.000000 0.000000 0.000000
		CHANNELS 3 Xrotation Yrotation Zrotation
		JOINT LeftUpLeg
		{
			OFFSET 8.479700 -4.795502 -0.379100
			CHANNELS 3 Xrotation Yrotation Zrotation
			JOINT LeftLeg
			{
				OFFSET 0.024144 -32.555107 0.112900
				CHANNELS 3 Xrotation Yrotation Zrotation
				JOINT LeftFoot
				{
					OFFSET -0.024144 -32.638630 -3.012600
					CHANNELS 3 Xrotation Yrotation Zrotation
					JOINT LeftToeBase
					{
						OFFSET 0.970200 -13.225400 11.864200
						CHANNELS 3 Xrotation Yrotation Zrotation
						End Site
						{
							OFFSET 0.000000 12.319262 0.000000
						}
					}
					JOINT LFootTongue
					{
						OFFSET 1.142400 -1.059800 6.665200
						CHANNELS 3 Xrotation Yrotation Zrotation
						End Site
						{
							OFFSET 0.000000 12.319262 0.000000
						}
					}
				}
				JOINT LeftPantLeg
				{
					OFFSET 0.918482 -16.533964 -2.284700
					CHANNELS 3 Xrotation Yrotation Zrotation
					End Site
					{
						OFFSET 0.350399 24.744368 0.000000
					}
				}
			}
		}
		JOINT RightUpLeg
		{
			OFFSET -8.479700 -4.795502 -0.379100
			CHANNELS 3 Xrotation Yrotation Zrotation
			JOINT RightLeg
			{
				OFFSET -0.023144 -32.555092 0.112900
				CHANNELS 3 Xrotation Yrotation Zrotation
				JOINT RightFoot
				{
					OFFSET 0.023144 -32.638641 -3.012700
					CHANNELS 3 Xrotation Yrotation Zrotation
					JOINT RightToeBase
					{
						OFFSET -0.970200 -13.225400 11.864200
						CHANNELS 3 Xrotation Yrotation Zrotation
						End Site
						{
							OFFSET 0.000000 12.319244 0.000000
						}
					}
					JOINT RFootTongue
					{
						OFFSET -1.142200 -1.059800 6.665200
						CHANNELS 3 Xrotation Yrotation Zrotation
						End Site
						{
							OFFSET 0.000000 12.319243 0.000000
						}
					}
				}
				JOINT RightPantLeg
				{
					OFFSET -0.919482 -16.533978 -2.284800
					CHANNELS 3 Xrotation Yrotation Zrotation
					End Site
					{
						OFFSET -0.350400 24.744419 0.000000
					}
				}
			}
		}
	}
	JOINT Spine
	{
		OFFSET 0.000000 7.722000 1.166200
		CHANNELS 3 Xrotation Yrotation Zrotation
		JOINT Spine1
		{
			OFFSET 0.000000 12.024101 0.248800
			CHANNELS 3 Xrotation Yrotation Zrotation
			JOINT Spine2
			{
				OFFSET 0.000000 11.502998 -0.491200
				CHANNELS 3 Xrotation Yrotation Zrotation
				JOINT Neck
				{
					OFFSET 0.000000 18.430702 -3.123100
					CHANNELS 3 Xrotation Yrotation Zrotation
					JOINT Head
					{
						OFFSET 0.000000 9.051102 1.034000
						CHANNELS 3 Xrotation Yrotation Zrotation
						JOINT HairB
						{
							OFFSET 0.208400 24.786102 24.822300
							CHANNELS 3 Xrotation Yrotation Zrotation
							End Site
							{
								OFFSET 0.000000 32.263779 0.000000
							}
						}
						JOINT HairA
						{
							OFFSET -7.081100 24.428299 23.196600
							CHANNELS 3 Xrotation Yrotation Zrotation
							End Site
							{
								OFFSET 0.000000 32.263779 0.000000
							}
						}
						JOINT Hat
						{
							OFFSET 16.728800 15.048294 -15.439601
							CHANNELS 3 Xrotation Yrotation Zrotation
							End Site
							{
								OFFSET 0.000000 32.263779 0.000000
							}
						}
					}
				}
				JOINT LeftShoulder
				{
					OFFSET 6.197800 13.665199 -4.064700
					CHANNELS 3 Xrotation Yrotation Zrotation
					JOINT LeftArm
					{
						OFFSET 7.778100 -0.187103 -1.709300
						CHANNELS 3 Xrotation Yrotation Zrotation
						JOINT LeftForeArm
						{
							OFFSET 22.049376 0.000000 0.000000
							CHANNELS 3 Xrotation Yrotation Zrotation
							JOINT LeftHand
							{
								OFFSET 23.009392 0.000000 0.000000
								CHANNELS 3 Xrotation Yrotation Zrotation
								JOINT LeftHandThumb1
								{
									OFFSET 3.507191 -2.063065 3.133727
									CHANNELS 3 Xrotation Yrotation Zrotation
									JOINT LeftHandThumb2
									{
										OFFSET 3.101337 -1.790558 1.790558
										CHANNELS 3 Xrotation Yrotation Zrotation
										JOINT LeftHandThumb3
										{
											OFFSET 3.058640 -1.765907 1.765906
											CHANNELS 3 Xrotation Yrotation Zrotation
											End Site
											{
												OFFSET -0.415260 3.926476 -0.049563
											}
										}
									}
								}
								JOINT LeftHandIndex1
								{
									OFFSET 11.334419 -0.901459 3.706815
									CHANNELS 3 Xrotation Yrotation Zrotation
									JOINT LeftHandIndex2
									{
										OFFSET 3.283112 0.000000 0.000000
										CHANNELS 3 Xrotation Yrotation Zrotation
										JOINT LeftHandIndex3
										{
											OFFSET 3.323853 0.000000 0.000000
											CHANNELS 3 Xrotation Yrotation Zrotation
											End Site
											{
												OFFSET -1.135597 3.097809 0.402452
											}
										}
									}
								}
								JOINT LeftHandMiddle1
								{
									OFFSET 11.335861 0.000000 0.000000
									CHANNELS 3 Xrotation Yrotation Zrotation
									JOINT LeftHandMiddle2
									{
										OFFSET 3.410492 0.000000 0.000000
										CHANNELS 3 Xrotation Yrotation Zrotation
										JOINT LeftHandMiddle3
										{
											OFFSET 3.312172 0.000000 0.000000
											CHANNELS 3 Xrotation Yrotation Zrotation
											End Site
											{
												OFFSET -1.150200 3.080154 0.400270
											}
										}
									}
								}
								JOINT LeftHandRing1
								{
									OFFSET 11.514786 -0.013176 -3.003090
									CHANNELS 3 Xrotation Yrotation Zrotation
									JOINT LeftHandRing2
									{
										OFFSET 3.053307 0.000000 0.000000
										CHANNELS 3 Xrotation Yrotation Zrotation
										JOINT LeftHandRing3
										{
											OFFSET 3.295807 0.000000 0.000000
											CHANNELS 3 Xrotation Yrotation Zrotation
											End Site
											{
												OFFSET -1.281006 3.013344 0.375733
											}
										}
									}
								}
								JOINT LeftHandPinky1
								{
									OFFSET 10.518692 -0.960396 -5.730441
									CHANNELS 3 Xrotation Yrotation Zrotation
									JOINT LeftHandPinky2
									{
										OFFSET 2.861649 0.000000 0.000000
										CHANNELS 3 Xrotation Yrotation Zrotation
										JOINT LeftHandPinky3
										{
											OFFSET 2.863380 0.000000 0.000000
											CHANNELS 3 Xrotation Yrotation Zrotation
											End Site
											{
												OFFSET -0.843597 2.711159 0.369971
											}
										}
									}
								}
							}
							JOINT LSleeve
							{
								OFFSET 6.676277 -0.344902 -1.011730
								CHANNELS 3 Xrotation Yrotation Zrotation
								End Site
								{
									OFFSET 0.000000 14.885353 0.000000
								}
							}
						}
					}
				}
				JOINT RightShoulder
				{
					OFFSET -6.197800 13.665199 -4.064700
					CHANNELS 3 Xrotation Yrotation Zrotation
					JOINT RightArm
					{
						OFFSET -7.778100 -0.187103 -1.709300
						CHANNELS 3 Xrotation Yrotation Zrotation
						JOINT RightForeArm
						{
							OFFSET -22.049376 0.000000 0.000000
							CHANNELS 3 Xrotation Yrotation Zrotation
							JOINT RightHand
							{
								OFFSET -23.009392 0.000000 0.000000
								CHANNELS 3 Xrotation Yrotation Zrotation
								JOINT RightHandThumb1
								{
									OFFSET -3.507191 -2.063065 3.133727
									CHANNELS 3 Xrotation Yrotation Zrotation
									JOINT RightHandThumb2
									{
										OFFSET -3.101337 -1.790558 1.790558
										CHANNELS 3 Xrotation Yrotation Zrotation
										JOINT RightHandThumb3
										{
											OFFSET -3.058640 -1.765907 1.765906
											CHANNELS 3 Xrotation Yrotation Zrotation
											End Site
											{
												OFFSET 0.415260 3.926476 -0.049563
											}
										}
									}
								}
								JOINT RightHandIndex1
								{
									OFFSET -11.334419 -0.901459 3.706815
									CHANNELS 3 Xrotation Yrotation Zrotation
									JOINT RightHandIndex2
									{
										OFFSET -3.283112 0.000000 0.000000
										CHANNELS 3 Xrotation Yrotation Zrotation
										JOINT RightHandIndex3
										{
											OFFSET -3.323853 0.000000 0.000000
											CHANNELS 3 Xrotation Yrotation Zrotation
											End Site
											{
												OFFSET 1.135597 3.097809 0.402452
											}
										}
									}
								}
								JOINT RightHandMiddle1
								{
									OFFSET -11.335861 0.000000 0.000000
									CHANNELS 3 Xrotation Yrotation Zrotation
									JOINT RightHandMiddle2
									{
										OFFSET -3.410492 0.000000 0.000000
										CHANNELS 3 Xrotation Yrotation Zrotation
										JOINT RightHandMiddle3
										{
											OFFSET -3.312172 0.000000 0.000000
											CHANNELS 3 Xrotation Yrotation Zrotation
											End Site
											{
												OFFSET 1.150200 3.080154 0.400270
											}
										}
									}
								}
								JOINT RightHandRing1
								{
									OFFSET -11.514786 -0.013176 -3.003090
									CHANNELS 3 Xrotation Yrotation Zrotation
									JOINT RightHandRing2
									{
										OFFSET -3.053307 0.000000 0.000000
										CHANNELS 3 Xrotation Yrotation Zrotation
										JOINT RightHandRing3
										{
											OFFSET -3.295807 0.000000 0.000000
											CHANNELS 3 Xrotation Yrotation Zrotation
											End Site
											{
												OFFSET 1.281006 3.013344 0.375733
											}
										}
									}
								}
								JOINT RightHandPinky1
								{
									OFFSET -10.518692 -0.960396 -5.730441
									CHANNELS 3 Xrotation Yrotation Zrotation
									JOINT RightHandPinky2
									{
										OFFSET -2.861649 0.000000 0.000000
										CHANNELS 3 Xrotation Yrotation Zrotation
										JOINT RightHandPinky3
										{
											OFFSET -2.863380 0.000000 0.000000
											CHANNELS 3 Xrotation Yrotation Zrotation
											End Site
											{
												OFFSET 0.843597 2.711159 0.369971
											}
										}
									}
								}
							}
							JOINT RSleeve
							{
								OFFSET -6.676277 -0.344902 -1.011730
								CHANNELS 3 Xrotation Yrotation Zrotation
								End Site
								{
									OFFSET 0.000000 14.885353 0.000000
								}
							}
						}
					}
				}
				JOINT Backpack
				{
					OFFSET 0.000000 -2.471497 36.677502
					CHANNELS 3 Xrotation Yrotation Zrotation
					End Site
					{
						OFFSET 0.000000 20.427315 0.000000
					}
				}
				JOINT Hood
				{
					OFFSET 0.000000 18.754097 -10.431000
					CHANNELS 3 Xrotation Yrotation Zrotation
					JOINT Hood1
					{
						OFFSET 0.000000 -5.011002 -7.685901
						CHANNELS 3 Xrotation Yrotation Zrotation
						End Site
						{
							OFFSET 0.000000 9.175140 0.000000
						}
					}
				}
				JOINT LHoodieString
				{
					OFFSET 5.250500 16.397697 3.089900
					CHANNELS 3 Xrotation Yrotation Zrotation
					JOINT LHoodieString1
					{
						OFFSET 0.257700 -6.364304 3.694600
						CHANNELS 3 Xrotation Yrotation Zrotation
						JOINT LHoodieString2
						{
							OFFSET 0.000000 -9.643799 2.679100
							CHANNELS 3 Xrotation Yrotation Zrotation
							End Site
							{
								OFFSET 0.000000 10.009018 0.000000
							}
						}
					}
				}
				JOINT RHoodieString
				{
					OFFSET -5.250500 16.397697 3.089900
					CHANNELS 3 Xrotation Yrotation Zrotation
					JOINT RHoodieString1
					{
						OFFSET -0.257700 -6.364304 3.694600
						CHANNELS 3 Xrotation Yrotation Zrotation
						JOINT RHoodieString2
						{
							OFFSET 0.000000 -9.643799 2.679100
							CHANNELS 3 Xrotation Yrotation Zrotation
							End Site
							{
								OFFSET 0.000000 10.009018 0.000000
							}
						}
					}
				}
			}
			JOINT LBackpack_Strap
			{
				OFFSET 15.223200 -7.719803 -6.610900
				CHANNELS 3 Xrotation Yrotation Zrotation
				End Site
				{
					OFFSET 0.000000 16.040596 0.000000
				}
			}
			JOINT RBackpack_Strap
			{
				OFFSET -15.223000 -7.719803 -6.610900
				CHANNELS 3 Xrotation Yrotation Zrotation
				End Site
				{
					OFFSET 0.000000 16.040596 0.000000
				}
			}
		}
	}
	JOINT BoyFacialAnim_Joint
	{
		OFFSET 1.000000 -82.208099 -1.550900
		CHANNELS 3 Xrotation Yrotation Zrotation
		End Site
		{
			OFFSET 0.000000 30.012791 0.000000
		}
	}
}
MOTION
Frames: 5
Frame Time: 0.033333
-0.330026 75.827942 0.537464 -0.830564 -39.162928 0.213236 0.000000 0.000001 0.000000 -34.810909 8.822310 20.456702 39.366509 -8.623898 4.820102 -0.099957 -7.600600 -15.820853 -0.000000 -0.000002 0.000000 -0.000000 -0.000002 0.000000 -0.000000 -0.000003 0.000001 -12.510189 -10.585611 -14.012846 42.204617 -3.495888 -0.560967 -27.725387 -4.034962 12.754195 -0.000000 -0.000002 0.000000 -0.000000 -0.000002 0.000000 -0.000001 -0.000004 0.000001 13.973501 6.413212 1.054947 2.511143 0.859069 -0.810687 2.522372 0.832544 -0.802962 6.622519 1.246811 -3.825183 12.088501 3.364274 -9.395089 -0.000001 -0.000001 0.000000 -0.000001 -0.000001 0.000000 -0.000001 -0.000001 0.000000 -0.092265 7.760981 -4.614772 -19.785183 -21.375775 -66.209818 0.000026 -126.418100 0.000023 17.597171 -3.178601 18.043441 13.533584 3.473507 -0.159366 14.077629 23.623492 -5.814186 0.000001 -0.000003 0.000002 4.967274 6.610919 -73.813977 6.559386 6.873702 -87.312965 -0.000000 -0.000002 -0.000002 5.057830 6.636814 -73.933458 6.482258 6.869672 -86.668373 0.000000 -0.000001 -0.000000 5.455620 6.732638 -77.834090 7.189431 6.874326 -92.573468 0.000001 0.000002 -0.000002 6.734254 7.000275 -78.103473 4.959459 2.521769 -73.794928 0.000001 -0.000002 -0.000001 0.000001 -0.000001 0.000004 3.382109 12.752270 -0.590640 -28.624406 35.335086 69.349301 0.000089 117.444351 -0.000103 1.868134 13.433822 -25.201822 21.416459 -10.846293 9.085712 21.032902 -25.678624 10.354861 0.000000 -0.000000 -0.000002 11.170955 -6.284174 100.558608 9.613665 -6.418986 112.607375 -0.000000 -0.000005 0.000003 9.480909 -6.798603 93.737093 9.087109 -6.612388 107.969670 0.000004 0.000008 0.000001 7.482669 -6.929106 93.279129 9.738693 -6.365793 113.730525 0.000001 0.000003 0.000001 6.370526 -6.924278 85.219000 9.448630 -6.484824 111.138796 -0.000002 -0.000004 -0.000002 0.000001 -0.000001 -0.000000 -0.000001 0.000000 -0.000000 -0.000001 0.000000 -0.000000 -0.000001 0.000000 -0.000000 -0.000001 0.000000 -0.000000 -0.000001 0.000000 -0.000001 0.000001 -0.000002 -0.000000 -0.000001 0.000000 -0.000000 -0.000001 0.000000 -0.000001 0.000001 -0.000002 -0.000000 -0.000000 0.000002 -0.000001 -0.000000 0.000002 -0.000001 0.000000 0.000001 0.000000 
-0.112401 75.691696 1.145668 -0.727014 -39.926605 0.532921 -0.000000 0.000000 0.000000 -35.135046 8.453810 19.683046 41.837009 -8.718560 4.802268 -0.833773 -4.727695 -15.622321 0.000000 -0.000002 0.000000 0.000000 -0.000002 -0.000000 -0.000001 0.000000 -0.000002 -12.704123 -10.715325 -15.071859 42.220159 -1.897456 -0.785491 -27.928449 -4.111484 12.904612 0.000000 -0.000002 0.000000 0.000000 -0.000002 0.000000 0.000001 0.000004 -0.000001 14.324875 6.327019 0.632317 2.344123 0.851771 -0.714414 2.353607 0.828777 -0.709087 6.517477 1.250689 -3.839759 11.827435 3.422824 -9.595991 0.000003 0.000001 -0.000000 0.000003 0.000001 -0.000000 0.000003 0.000001 -0.000000 -0.040970 7.503614 -4.711692 -19.982779 -21.450824 -66.081322 0.000048 -125.585677 0.000050 17.555331 -2.973020 17.977253 13.533578 3.473509 -0.159366 14.077629 23.623476 -5.814179 -0.000002 -0.000001 -0.000004 4.967272 6.610921 -73.813970 6.559388 6.873703 -87.312965 0.000001 -0.000002 -0.000002 5.057828 6.636816 -73.933451 6.482261 6.869674 -86.668373 0.000002 -0.000004 -0.000000 5.455619 6.732637 -77.834083 7.189430 6.874325 -92.573468 0.000000 0.000001 -0.000000 6.734253 7.000281 -78.103480 4.959456 2.521768 -73.794935 0.000001 -0.000001 -0.000004 0.000003 0.000002 0.000001 3.271076 12.578105 -0.729878 -28.821329 35.758967 69.224309 0.000090 116.926090 -0.000096 1.523801 13.282060 -25.169565 21.416463 -10.846291 9.085716 21.032898 -25.678629 10.354862 -0.000000 -0.000000 -0.000001 11.170955 -6.284174 100.558608 9.613665 -6.418984 112.607375 0.000000 0.000001 0.000004 9.480910 -6.798610 93.737100 9.087108 -6.612385 107.969670 0.000000 -0.000000 -0.000000 7.482670 -6.929107 93.279135 9.738690 -6.365792 113.730525 -0.000002 0.000001 0.000002 6.370526 -6.924273 85.219000 9.448634 -6.484824 111.138796 0.000000 -0.000002 -0.000002 0.000001 0.000001 0.000001 -0.000000 -0.000002 0.000000 -0.000000 -0.000002 0.000000 -0.000000 -0.000002 0.000000 -0.000000 -0.000002 0.000000 -0.000000 -0.000002 -0.000000 -0.000001 -0.000002 -0.000000 -0.000000 -0.000002 0.000000 -0.000000 -0.000002 -0.000000 -0.000001 -0.000002 -0.000000 0.000001 -0.000001 -0.000000 0.000001 -0.000001 -0.000000 -0.000000 0.000000 0.000000 
0.141057 75.422302 1.780410 -0.665779 -40.734186 0.538724 0.000000 -0.000000 0.000000 -35.865180 7.618974 18.937029 45.038121 -8.698300 5.375623 -1.471673 -2.364882 -16.012265 0.000000 -0.000001 -0.000000 0.000000 -0.000001 0.000000 0.000001 -0.000000 -0.000000 -13.034045 -10.620452 -15.660598 42.667850 -0.610718 -1.221401 -28.277419 -4.286304 13.218802 -0.000000 -0.000000 -0.000000 -0.000000 -0.000000 -0.000000 -0.000002 -0.000000 0.000000 14.867319 6.194295 0.561105 2.104449 0.832539 -0.631207 2.112765 0.811377 -0.629294 6.357672 1.281820 -3.904794 11.412778 3.597509 -9.874675 0.000001 -0.000001 0.000000 0.000001 -0.000001 0.000000 0.000001 -0.000001 0.000000 0.052277 7.123480 -4.824868 -20.063194 -21.233223 -65.826262 -0.000022 -124.833564 -0.000027 17.685957 -2.726819 17.841736 13.533584 3.473505 -0.159369 14.077633 23.623483 -5.814178 0.000002 0.000002 0.000003 4.967275 6.610917 -73.813977 6.559386 6.873703 -87.312965 0.000001 -0.000002 -0.000002 5.057830 6.636817 -73.933458 6.482261 6.869672 -86.668366 0.000003 -0.000003 0.000001 5.455621 6.732633 -77.834090 7.189431 6.874324 -92.573468 -0.000000 0.000003 -0.000002 6.734256 7.000273 -78.103473 4.959454 2.521764 -73.794935 -0.000001 0.000000 -0.000002 -0.000000 -0.000001 0.000002 3.138500 12.375948 -0.910852 -28.928713 36.367373 69.014513 0.000028 116.530390 -0.000041 1.301321 13.254387 -25.044082 21.416463 -10.846287 9.085715 21.032905 -25.678627 10.354866 -0.000002 -0.000001 -0.000001 11.170958 -6.284171 100.558608 9.613666 -6.418984 112.607369 -0.000002 -0.000000 0.000003 9.480910 -6.798603 93.737093 9.087110 -6.612386 107.969670 0.000002 0.000003 0.000000 7.482671 -6.929103 93.279129 9.738691 -6.365796 113.730525 -0.000001 -0.000000 0.000002 6.370528 -6.924274 85.219000 9.448640 -6.484822 111.138796 -0.000001 -0.000002 -0.000000 0.000000 -0.000007 -0.000000 0.000001 -0.000003 0.000001 0.000001 -0.000003 0.000001 0.000001 -0.000003 0.000001 0.000001 -0.000003 0.000001 0.000001 -0.000003 0.000001 -0.000000 0.000000 -0.000000 0.000001 -0.000003 0.000001 0.000001 -0.000003 0.000001 -0.000000 0.000000 -0.000000 -0.000000 -0.000001 -0.000001 -0.000000 -0.000001 -0.000001 0.000000 -0.000000 0.000000 
0.423915 74.975647 2.523243 -0.711150 -41.609454 0.414594 0.000000 0.000004 0.000000 -37.175798 6.767134 18.952559 48.752415 -8.744392 5.562661 -1.771036 -1.462304 -16.817128 -0.000000 0.000002 -0.000001 -0.000000 0.000002 -0.000000 -0.000001 0.000003 -0.000002 -13.545869 -10.404309 -16.288333 43.690422 0.479750 -1.791253 -28.851061 -4.592880 13.790425 -0.000000 0.000002 0.000000 -0.000000 0.000002 0.000000 0.000002 0.000001 0.000002 15.668466 6.014632 0.763909 1.779637 0.802588 -0.550630 1.787249 0.782009 -0.553363 6.154943 1.335170 -4.011230 10.832678 3.869499 -10.182866 0.000001 0.000000 -0.000000 0.000001 0.000000 -0.000000 0.000001 0.000000 -0.000000 0.216422 6.513681 -4.998901 -20.005020 -20.635630 -65.463634 0.000023 -124.317407 0.000026 17.981865 -2.550904 17.747946 13.533582 3.473507 -0.159369 14.077629 23.623481 -5.814185 0.000001 0.000002 0.000002 4.967276 6.610917 -73.813977 6.559387 6.873703 -87.312965 0.000001 -0.000001 -0.000000 5.057829 6.636814 -73.933458 6.482264 6.869674 -86.668373 0.000003 -0.000001 -0.000002 5.455621 6.732633 -77.834090 7.189428 6.874325 -92.573474 -0.000000 -0.000002 -0.000001 6.734257 7.000269 -78.103480 4.959451 2.521765 -73.794935 -0.000001 0.000003 0.000000 0.000002 -0.000000 -0.000001 2.975017 12.133227 -1.151690 -28.875864 37.072296 68.758087 0.000095 116.372872 -0.000096 1.250104 13.449495 -24.832097 21.416459 -10.846289 9.085716 21.032903 -25.678619 10.354860 -0.000000 0.000001 -0.000002 11.170955 -6.284177 100.558614 9.613662 -6.418984 112.607375 -0.000004 0.000000 -0.000002 9.480913 -6.798608 93.737100 9.087112 -6.612386 107.969670 -0.000001 0.000001 -0.000002 7.482671 -6.929109 93.279135 9.738695 -6.365791 113.730532 -0.000000 0.000006 0.000003 6.370526 -6.924277 85.219007 9.448634 -6.484823 111.138796 -0.000003 0.000001 0.000000 -0.000002 -0.000001 0.000000 0.000000 0.000000 -0.000000 0.000000 0.000000 -0.000000 0.000000 0.000000 -0.000000 0.000000 0.000000 -0.000000 0.000000 0.000000 0.000001 0.000000 0.000000 0.000000 0.000000 0.000000 -0.000000 0.000000 0.000000 0.000001 0.000000 0.000000 0.000000 0.000000 -0.000004 0.000001 0.000000 -0.000004 0.000001 0.000000 0.000004 0.000000 
0.711362 74.383217 3.397531 -0.816615 -42.660494 0.554899 0.000000 -0.000000 0.000000 -39.030597 5.995243 19.683369 52.840591 -8.951298 4.654084 -0.635560 -0.878807 -17.460996 -0.000000 -0.000002 0.000000 -0.000000 -0.000002 0.000000 -0.000001 0.000001 -0.000001 -14.477467 -10.572434 -17.724551 45.252295 2.457047 -2.399100 -29.762307 -4.902861 14.183378 -0.000000 -0.000000 -0.000000 -0.000000 -0.000000 -0.000000 0.000002 0.000000 0.000000 16.724311 5.874066 0.756247 1.411352 0.779711 -0.464469 1.417992 0.760391 -0.472664 5.994167 1.391963 -4.108690 10.147084 4.198962 -10.393720 0.000001 -0.000001 0.000000 0.000001 -0.000001 0.000000 0.000001 -0.000001 0.000000 0.465814 5.596174 -5.288428 -19.784454 -19.676931 -65.111947 0.000005 -124.321614 0.000000 18.258100 -2.801118 18.157713 13.533584 3.473504 -0.159371 14.077631 23.623481 -5.814178 0.000005 -0.000000 0.000003 4.967274 6.610920 -73.813977 6.559386 6.873705 -87.312965 -0.000002 -0.000002 -0.000002 5.057830 6.636816 -73.933458 6.482261 6.869673 -86.668373 0.000001 -0.000000 -0.000003 5.455621 6.732636 -77.834090 7.189427 6.874325 -92.573468 0.000001 -0.000002 -0.000003 6.734256 7.000275 -78.103480 4.959456 2.521767 -73.794935 -0.000001 0.000004 0.000000 0.000002 -0.000001 0.000002 2.799930 11.896627 -1.434640 -28.605085 37.634701 68.591888 0.000096 116.509217 -0.000103 1.236299 13.963564 -24.705522 21.416463 -10.846293 9.085714 21.032910 -25.678631 10.354868 -0.000000 0.000002 -0.000002 11.170956 -6.284170 100.558608 9.613666 -6.418985 112.607375 -0.000000 0.000001 0.000000 9.480910 -6.798609 93.737100 9.087118 -6.612386 107.969663 -0.000001 -0.000001 0.000001 7.482672 -6.929105 93.279135 9.738693 -6.365795 113.730525 -0.000000 -0.000003 -0.000004 6.370529 -6.924279 85.219000 9.448634 -6.484824 111.138803 -0.000001 0.000001 -0.000001 0.000000 0.000001 -0.000000 -0.000001 0.000002 -0.000000 -0.000001 0.000002 -0.000000 -0.000001 0.000002 -0.000000 -0.000001 0.000002 -0.000000 -0.000001 0.000002 -0.000000 -0.000001 0.000000 0.000001 -0.000001 0.000002 -0.000000 -0.000001 0.000002 -0.000000 -0.000001 0.000000 0.000001 0.000000 -0.000001 0.000001 0.000000 -0.000001 0.000001 0.000000 -0.000000 0.000000 
